<svg width="102.000000" height="70.000000" viewBox="0 0 102 70" fill="none" xmlns="http://www.w3.org/2000/svg" xmlns:xlink="http://www.w3.org/1999/xlink">
	<desc>
			Created with Pixso.
	</desc>
	<defs>
		<clipPath id="clip7_330">
			<rect id="bike-delivery-icon 1" width="102.000000" height="70.000000" fill="white" fill-opacity="0"/>
		</clipPath>
	</defs>
	<rect id="bike-delivery-icon 1" width="102.000000" height="70.000000" fill="#D4CEC0" fill-opacity="0"/>
	<g clip-path="url(#clip7_330)">
		<path id="Vector" d="M23.9395 10.6211L27.8823 10.6948L19.1582 39.1562C20.3618 39.4521 21.499 39.8052 22.5698 40.208C21.5156 39.8135 20.4033 39.4688 19.2246 39.1729C11.5713 37.4727 5.24609 39.9531 0 45.8511L6.53271 48.8984L34.2822 61.8516C34.498 60.168 34.5977 58.5908 34.5645 57.104C34.5728 57.3179 34.5894 57.5396 34.5894 57.7612L66.4395 57.7612C66.4478 64.5215 71.9927 69.9917 78.8242 69.9917C85.6558 69.9917 91.2007 64.5132 91.209 57.7612L101.635 57.7612C102.357 43.7397 95.6665 32.9546 83.9458 31.9199L99.7173 31.9199C100.971 31.9199 101.992 30.9014 101.992 29.6694L101.992 27.1968C101.992 25.9727 100.979 24.979 99.7505 24.979L99.5513 24.979L99.5513 8.0415C99.5513 6.93262 98.6299 6.021 97.5093 6.021L68.1245 6.021C67.0039 6.021 66.0825 6.93262 66.0825 8.0415L66.0825 24.9707L51.5562 24.9707C50.0205 24.9214 49.207 25.6113 49.1987 27.1309L49.1987 31.9282L49.1987 35.0659C55.7397 40.1587 56.7358 48.1182 50.7676 52.603L41.0889 52.603C40.8398 44.9722 36.4321 40.3228 29.1108 35.1807L33.4771 21.8657C35.2783 17.7261 34.0913 14.5884 31.46 12.395C32.2817 9.7832 32.8711 7.54883 32.6885 5.7251L37.2622 6.66162C38.748 6.96582 39.1299 7.49121 39.6113 6.07031C39.6943 5.82373 39.7607 5.58545 39.8022 5.33936C40.1758 3.39258 39.9434 3.52393 38.3496 3.22021L33.4688 2.28369L32.0161 2.28369L30.2231 1.28955C29.1523 0.681641 28.04 0.320312 26.9028 0.172852L25.334 0.0742188C23.7236 0.0742188 21.9141 -0.369629 20.9844 1.10059C20.9678 1.12549 20.9595 1.21582 20.9512 1.34717C20.2954 1.56885 19.731 2.05371 19.3076 2.71875C18.7847 3.52393 18.4692 4.62451 18.4692 5.82373C18.4692 7.02295 18.793 8.12402 19.3076 8.92871C19.8887 9.83252 20.7271 10.4072 21.6899 10.4321C22.2461 10.8262 23.126 10.6045 23.9395 10.6211ZM85.606 20.0176L95.9487 20.0176L95.9487 21.8164L85.606 21.8164L85.606 20.0176ZM77.7451 7.78711L85.2158 7.78711L85.2158 15.8203L81.2979 12.814L77.7451 15.8203L77.7451 7.78711ZM85.606 24.6997L95.9487 24.6997L95.9487 26.4985L85.606 26.4985L85.606 24.6997ZM6.56592 48.9229L17.606 54.0977L14.02 52.4712C11.5547 52.9888 9.71191 55.1572 9.71191 57.7446C9.71191 60.7266 12.1523 63.1416 15.1655 63.1416C18.1787 63.1416 20.6191 60.7266 20.6191 57.7446C20.6191 56.8247 20.3867 55.9624 19.98 55.1982L27.5171 58.7305C27.0107 65.0391 21.6733 70 15.1738 70C8.33398 70 2.78906 64.5132 2.78906 57.7446C2.77246 54.2783 4.2251 51.1489 6.56592 48.9229ZM20.9761 3.4502C21.0259 5.02734 21.1338 7.05615 21.2085 8.41943C21.0757 8.30469 20.9429 8.15674 20.8267 7.96777C20.478 7.43359 20.2705 6.66992 20.2705 5.81543C20.2705 4.96143 20.4863 4.19727 20.8267 3.66357C20.8765 3.58984 20.9263 3.51562 20.9761 3.4502ZM73.3789 57.7612L84.2861 57.7612C84.2778 60.7349 81.8374 63.1333 78.8325 63.1333C75.8276 63.1333 73.3872 60.7349 73.3789 57.7612Z" fill="#DDD5C6" fill-opacity="1.000000" fill-rule="evenodd"/>
	</g>
</svg>
