<svg width="24.000000" height="24.000000" viewBox="0 0 24 24" fill="none" xmlns="http://www.w3.org/2000/svg" xmlns:xlink="http://www.w3.org/1999/xlink">
	<desc>
			Created with Pixso.
	</desc>
	<defs>
		<clipPath id="clip5_155">
			<rect id="_Facebook" rx="6.000000" width="24.000000" height="24.000000" fill="white" fill-opacity="0"/>
		</clipPath>
	</defs>
	<rect id="_Facebook" rx="6.000000" width="24.000000" height="24.000000" fill="#FFFFFF" fill-opacity="0"/>
	<g clip-path="url(#clip5_155)">
		<path id="Vector" d="M17.2137 13.3278L17.8356 9.2326L13.9452 9.2326L13.9452 6.57629C13.9452 5.45569 14.4877 4.36273 16.2302 4.36273L18 4.36273L18 0.876282C18 0.876282 16.3945 0.599609 14.8603 0.599609C11.6548 0.599609 9.56165 2.5614 9.56165 6.11145L9.56165 9.2326L6 9.2326L6 13.3278L9.56165 13.3278L9.56165 23.228C10.2767 23.3415 11.0082 23.3996 11.7534 23.3996C12.4987 23.3996 13.2302 23.3415 13.9452 23.228L13.9452 13.3278L17.2137 13.3278Z" fill="#705A66" fill-opacity="1.000000" fill-rule="nonzero"/>
	</g>
</svg>
