<svg width="79.094238" height="92.893066" viewBox="0 0 79.0942 92.8931" fill="none" xmlns="http://www.w3.org/2000/svg" xmlns:xlink="http://www.w3.org/1999/xlink">
	<desc>
			Created with Pixso.
	</desc>
	<defs/>
	<path id="Vector 36" d="M10.9247 1.50049C-0.75354 2.7666 0.961792 29.2256 3.25208 36.4897C8.54309 53.27 23.1516 66.6221 38.1808 64.5298M38.1808 64.5298C43.8514 63.7402 49.5819 60.7524 54.8945 54.9199C62.4945 46.5762 60.8593 27.5171 46.0415 30.2979C28.9877 33.4985 31.5754 50.5747 38.1808 64.5298C41.3845 71.2988 45.5336 77.333 48.845 80.6938C52.8804 84.7896 62.1974 88.3872 69.7565 87.8667M69.7565 87.8667C72.1646 87.7007 74.3943 87.1167 76.2179 85.9976M76.2179 85.9976C76.4974 85.8267 76.7673 85.6421 77.027 85.4458C78.0964 84.6333 77.5519 84.6704 76.2305 85.1372C74.6873 85.6821 72.0846 86.814 69.7565 87.8667C68.2594 88.5435 66.876 89.187 65.9607 89.6206C56.4738 94.1177 71.5441 89.3589 74.6661 87.605C75.572 87.0962 76.0553 86.5552 76.2179 85.9976C76.3007 85.7144 76.3004 85.4263 76.2305 85.1372M76.2305 85.1372C75.5343 82.2515 67.9329 79.1626 66.6985 77.958" stroke="#705A66" stroke-opacity="1.000000" stroke-width="3.000000" stroke-linecap="round"/>
</svg>
