<svg width="34.000000" height="34.000000" viewBox="0 0 34 34" fill="none" xmlns="http://www.w3.org/2000/svg" xmlns:xlink="http://www.w3.org/1999/xlink">
	<desc>
			Created with Pixso.
	</desc>
	<defs/>
	<path id="Vector" d="M33.9048 9.99023C33.8231 8.17969 33.5307 6.94141 33.1158 5.85938C32.6805 4.74316 32.1024 3.79102 31.157 2.85156C30.2116 1.91211 29.2662 1.32031 28.1508 0.891602C27.0694 0.469727 25.8315 0.183594 24.0224 0.102539C22.2064 0.0205078 21.6283 0 17.017 0C12.3989 0 11.8207 0.0205078 10.0116 0.102539C8.20239 0.183594 6.9646 0.476562 5.88318 0.891602C4.76093 1.32715 3.80872 1.90527 2.87018 2.85156C1.93158 3.79785 1.33984 4.74316 0.911377 5.85938C0.49646 6.94141 0.204041 8.17969 0.122437 9.99023C0.0407715 11.8076 0.0203857 12.3857 0.0203857 17C0.0203857 21.6211 0.0407715 22.1992 0.122437 24.0098C0.204041 25.8203 0.49646 27.0586 0.911377 28.1406C1.34668 29.2568 1.92474 30.209 2.87018 31.1484C3.80872 32.0947 4.76093 32.6797 5.87634 33.1084C6.95776 33.5303 8.19562 33.8164 10.0048 33.8975C11.8207 33.9795 12.3989 34 17.0102 34C21.6283 34 22.2064 33.9795 24.0156 33.8975C25.8248 33.8164 27.0626 33.5234 28.144 33.1084C29.2595 32.6729 30.2116 32.0947 31.1502 31.1484C32.0888 30.2021 32.6805 29.2568 33.109 28.1406C33.5307 27.0586 33.8163 25.8203 33.8979 24.0098C33.9796 22.1924 34 21.6143 34 17C34 12.3857 33.9864 11.8008 33.9048 9.99023ZM30.851 23.873C30.7761 25.5342 30.4973 26.4395 30.2661 27.0312C29.96 27.8203 29.5859 28.3926 28.9874 28.9912C28.3889 29.5898 27.8243 29.9512 27.0286 30.2705C26.4301 30.502 25.5255 30.7812 23.8727 30.8555C22.084 30.9375 21.5467 30.958 17.0034 30.958C12.4601 30.958 11.9228 30.9375 10.134 30.8555C8.47449 30.7812 7.56989 30.502 6.97815 30.2705C6.18921 29.9648 5.61792 29.5898 5.01941 28.9912C4.42084 28.3926 4.06036 27.8271 3.74072 27.0312C3.50946 26.4326 3.23065 25.5273 3.15582 23.873C3.07422 22.084 3.05377 21.5459 3.05377 17C3.05377 12.4541 3.07422 11.916 3.15582 10.127C3.23065 8.46582 3.50946 7.56055 3.74072 6.96875C4.04681 6.17969 4.42084 5.60742 5.01941 5.00879C5.61792 4.41016 6.18243 4.04883 6.97815 3.72949C7.57672 3.49805 8.48126 3.21875 10.134 3.14453C11.9228 3.0625 12.4601 3.04199 17.0034 3.04199C21.5467 3.04199 22.084 3.0625 23.8727 3.14453C25.5323 3.21875 26.4369 3.49805 27.0286 3.72949C27.8176 4.03516 28.3889 4.41016 28.9874 5.00879C29.5859 5.60742 29.9464 6.17285 30.2661 6.96875C30.4973 7.56738 30.7761 8.47266 30.851 10.127C30.9326 11.916 30.953 12.4541 30.953 17C30.953 21.5459 30.9258 22.084 30.851 23.873Z" fill="#FFFFFF" fill-opacity="1.000000" fill-rule="nonzero"/>
	<path id="Vector" d="M17.003 8.26172C12.174 8.26172 8.27002 12.1748 8.27002 17C8.27002 21.832 12.1808 25.7383 17.003 25.7383C21.8251 25.7383 25.7359 21.8184 25.7359 17C25.7359 12.168 21.8319 8.26172 17.003 8.26172ZM17.003 22.6689C13.8743 22.6689 11.3375 20.1309 11.3375 17C11.3375 13.8691 13.8743 11.3311 17.003 11.3311C20.1316 11.3311 22.6685 13.8691 22.6685 17C22.6685 20.1309 20.1316 22.6689 17.003 22.6689Z" fill="#FFFFFF" fill-opacity="1.000000" fill-rule="nonzero"/>
	<path id="Vector" d="M28.1168 7.92188C28.1168 9.04883 27.2033 9.96289 26.0764 9.96289C24.9495 9.96289 24.036 9.04883 24.036 7.92188C24.036 6.79395 24.9495 5.87988 26.0764 5.87988C27.2033 5.87988 28.1168 6.79395 28.1168 7.92188Z" fill="#FFFFFF" fill-opacity="1.000000" fill-rule="evenodd"/>
	<path id="Vector" d="M0 17C0 21.6211 0.0203857 22.1992 0.102051 24.0098C0.183655 25.8203 0.476074 27.0586 0.890991 28.1406C1.32629 29.2568 1.90436 30.209 2.84979 31.1484C3.78833 32.0879 4.74054 32.6797 5.85596 33.1084C6.93738 33.5303 8.17523 33.8164 9.98438 33.8975C11.8004 33.9795 12.3785 34 16.9898 34C21.6079 34 22.186 33.9795 23.9952 33.8975C25.8044 33.8164 27.0422 33.5234 28.1236 33.1084C29.2391 32.6729 30.1912 32.0947 31.1298 31.1484C32.0684 30.209 32.6602 29.2568 33.0886 28.1406C33.5103 27.0586 33.796 25.8203 33.8776 24.0098C33.9592 22.1924 33.9796 21.6143 33.9796 17C33.9796 12.3789 33.9592 11.8008 33.8776 9.99023C33.796 8.17969 33.5035 6.94141 33.0886 5.85938C32.6533 4.74316 32.0752 3.79102 31.1298 2.85156C30.1981 1.90527 29.2458 1.32031 28.1304 0.891602C27.049 0.469727 25.8112 0.183594 24.002 0.102539C22.186 0.0205078 21.6079 0 16.9966 0C12.3785 0 11.8004 0.0205078 9.99121 0.102539C8.18201 0.183594 6.94421 0.476562 5.86279 0.891602C4.74738 1.32715 3.79517 1.90527 2.85657 2.85156C1.91797 3.79785 1.32629 4.74316 0.897766 5.85938C0.476074 6.94141 0.183655 8.17969 0.102051 9.99023C0.0203857 11.8008 0 12.3789 0 17ZM3.06738 17C3.06738 12.4609 3.08783 11.916 3.16943 10.127C3.24426 8.46582 3.52313 7.56055 3.75433 6.96875C4.06042 6.17969 4.43451 5.60742 5.03302 5.00879C5.63153 4.41016 6.19604 4.04883 6.99182 3.72949C7.59033 3.49805 8.49487 3.21875 10.1476 3.14453C11.9364 3.0625 12.4737 3.04199 17.017 3.04199C21.5603 3.04199 22.0976 3.0625 23.8864 3.14453C25.5459 3.21875 26.4505 3.49805 27.0422 3.72949C27.8312 4.03516 28.4025 4.41016 29.001 5.00879C29.5995 5.60742 29.96 6.17285 30.2797 6.96875C30.5109 7.56738 30.7897 8.47266 30.8646 10.127C30.9462 11.916 30.9666 12.4541 30.9666 17C30.9666 21.5459 30.9462 22.084 30.8646 23.873C30.7897 25.5342 30.5109 26.4395 30.2797 27.0312C29.9736 27.8203 29.5995 28.3926 29.001 28.9912C28.4025 29.5898 27.838 29.9512 27.0422 30.2705C26.4437 30.502 25.5391 30.7812 23.8864 30.8555C22.0976 30.9375 21.5603 30.958 17.017 30.958C12.4737 30.958 11.9364 30.9375 10.1476 30.8555C8.4881 30.7812 7.5835 30.502 6.99182 30.2705C6.20282 29.9648 5.63153 29.5898 5.03302 28.9912C4.43451 28.3926 4.07404 27.8271 3.75433 27.0312C3.52313 26.4326 3.24426 25.5273 3.16943 23.873C3.08099 22.084 3.06738 21.5391 3.06738 17Z" fill="#FFFFFF" fill-opacity="1.000000" fill-rule="nonzero"/>
</svg>
