<svg width="23.985596" height="24.000000" viewBox="0 0 23.9856 24" fill="none" xmlns="http://www.w3.org/2000/svg" xmlns:xlink="http://www.w3.org/1999/xlink">
	<desc>
			Created with Pixso.
	</desc>
	<defs/>
	<path id="Vector" d="M23.9184 7.05206C23.8608 5.77423 23.6544 4.8999 23.3615 4.13611C23.0542 3.34827 22.6461 2.67572 21.9788 2.01282C21.3115 1.34985 20.6441 0.931946 19.8568 0.629333C19.0934 0.331482 18.2197 0.1297 16.9426 0.0720825C15.6607 0.0144043 15.2526 0 11.9976 0C8.73773 0 8.32965 0.0144043 7.05261 0.0720825C5.77557 0.1297 4.90179 0.336243 4.13843 0.629333C3.34625 0.936768 2.67413 1.34509 2.0116 2.01282C1.34906 2.68054 0.931396 3.34827 0.628906 4.13611C0.33606 4.8999 0.129639 5.77423 0.0720215 7.05206C0.0144043 8.33466 0 8.74298 0 12C0 15.2618 0.0144043 15.6702 0.0720215 16.9479C0.129639 18.2258 0.33606 19.1001 0.628906 19.8639C0.936157 20.6517 1.3443 21.3243 2.0116 21.9872C2.67413 22.6549 3.34625 23.0681 4.13361 23.3707C4.89697 23.6685 5.77075 23.8703 7.04779 23.9279C8.32965 23.9856 8.73773 24 11.9928 24C15.2526 24 15.6607 23.9856 16.9378 23.9279C18.2148 23.8703 19.0886 23.6638 19.852 23.3707C20.6393 23.0632 21.3115 22.6549 21.974 21.9872C22.6365 21.3195 23.0542 20.6517 23.3567 19.8639C23.6544 19.1001 23.856 18.2258 23.9136 16.9479C23.9712 15.6653 23.9856 15.257 23.9856 12C23.9856 8.74298 23.976 8.32983 23.9184 7.05206ZM21.7628 16.8519C21.71 18.024 21.5131 18.6629 21.3499 19.0809C21.1339 19.6381 20.8698 20.0416 20.4473 20.4644C20.0248 20.8871 19.6263 21.1417 19.0646 21.3675C18.6422 21.5308 18.0036 21.7278 16.837 21.7806C15.5743 21.8383 15.1951 21.8527 11.988 21.8527C8.78094 21.8527 8.40167 21.8383 7.13904 21.7806C5.96759 21.7278 5.32904 21.5308 4.91138 21.3675C4.35449 21.1513 3.95117 20.8871 3.52869 20.4644C3.1062 20.0416 2.85175 19.6429 2.6261 19.0809C2.46289 18.6581 2.26605 18.0192 2.21326 16.8519C2.15564 15.5885 2.14124 15.209 2.14124 12C2.14124 8.79102 2.15564 8.4115 2.21326 7.14813C2.26605 5.97595 2.46289 5.3371 2.6261 4.91913C2.84216 4.36188 3.1062 3.95837 3.52869 3.53564C3.95117 3.11292 4.34967 2.85828 4.91138 2.63251C5.33386 2.46918 5.97241 2.27222 7.13904 2.21936C8.40167 2.16174 8.78094 2.14734 11.988 2.14734C15.1951 2.14734 15.5743 2.16174 16.837 2.21936C18.0084 2.27222 18.6469 2.46918 19.0646 2.63251C19.6215 2.84869 20.0248 3.11292 20.4473 3.53564C20.8698 3.95837 21.1242 4.35706 21.3499 4.91913C21.5131 5.34186 21.71 5.98077 21.7628 7.14813C21.8204 8.4115 21.8348 8.79102 21.8348 12C21.8348 15.209 21.8156 15.5885 21.7628 16.8519Z" fill="#705A66" fill-opacity="1.000000" fill-rule="nonzero"/>
	<path id="Vector" d="M11.9877 5.83203C8.57898 5.83203 5.82324 8.59424 5.82324 12.0002C5.82324 15.4109 8.5838 18.1683 11.9877 18.1683C15.3915 18.1683 18.1521 15.4013 18.1521 12.0002C18.1521 8.58942 15.3964 5.83203 11.9877 5.83203ZM11.9877 16.0018C9.77924 16.0018 7.98846 14.21 7.98846 12.0002C7.98846 9.79041 9.77924 7.99854 11.9877 7.99854C14.1961 7.99854 15.9869 9.79041 15.9869 12.0002C15.9869 14.21 14.1961 16.0018 11.9877 16.0018Z" fill="#705A66" fill-opacity="1.000000" fill-rule="nonzero"/>
	<path id="Vector" d="M19.8327 5.59167C19.8327 6.38757 19.1879 7.03284 18.3925 7.03284C17.597 7.03284 16.9521 6.38757 16.9521 5.59167C16.9521 4.79572 17.597 4.15051 18.3925 4.15051C19.1879 4.15051 19.8327 4.79572 19.8327 5.59167Z" fill="#705A66" fill-opacity="1.000000" fill-rule="evenodd"/>
</svg>
