<svg width="470.500122" height="165.651855" viewBox="0 0 470.5 165.652" fill="none" xmlns="http://www.w3.org/2000/svg" xmlns:xlink="http://www.w3.org/1999/xlink">
	<desc>
			Created with Pixso.
	</desc>
	<defs/>
	<path id="Давайте зробимо щось унікальне разом!" d="M51.1676 68.4219C51.2799 69.7672 48.9886 70.8797 47.3474 71.9921C46.3206 72.6739 45.63 72.8399 44.5493 73.5262C43.8095 74.4007 43.554 74.5846 43.0248 74.7372C42.2804 74.9077 42.1548 74.7015 41.5807 74.3159C40.8319 74.4326 39.7466 74.4148 38.7825 74.5495C33.9708 75.3305 31.1815 75.6717 26.3698 76.4528C23.4281 76.9151 20.9258 77.4491 18.8899 77.7275C18.3655 79.2343 18.1593 80.0102 18.1191 81.4766C18.061 82.7278 18.4871 83.2882 18.3797 84.5977C18.3215 85.1987 17.8418 85.9431 17.4113 85.9791C16.4426 86.06 15.6936 84.8762 15.5723 83.4232C15.3927 81.921 15.5941 79.7908 15.7957 78.3109C13.7463 78.4278 12.2576 78.7689 10.9705 78.9305C8.23957 79.321 6.4907 79.7922 5.31131 79.9448C4.18124 80.0392 3.44574 79.6671 3.31994 78.1603C3.24357 77.2455 4.14042 76.9539 5.58887 76.7788C6.18081 76.7293 6.83555 76.7831 7.53512 76.7246C10.6563 76.4641 14.598 75.6473 16.3155 75.4498C16.6426 73.5259 17.3416 70.2162 18.5653 66.05C19.7037 62.1618 20.4927 59.9284 21.398 56.4932C22.7157 51.5063 24.8133 44.1784 27.2349 43.9762C29.0645 43.8234 29.6031 46.3795 30.3301 49.8952C30.8506 52.236 31.6 55.3705 32.1339 57.2225C33.2063 60.9804 36.1937 66.2581 36.62 68.1191C36.8803 69.2895 37.2034 70.563 37.1677 72.0833C38.1318 71.9486 38.8269 71.8364 39.6341 71.769C40.9256 71.6612 41.7283 71.54 42.9346 71.06C44.5085 70.4409 45.2843 69.9968 46.6833 69.2297C47.8716 68.5345 48.8625 67.4222 49.7235 67.3503C50.3692 67.2964 51.0643 67.1842 51.1676 68.4219ZM34.3691 69.7159C33.9114 68.1285 33.1757 66.4559 32.422 64.568C31.1794 61.3663 29.7752 58.1781 28.8419 54.1377C28.3258 51.8507 27.6887 49.4113 26.962 48.4966C25.5231 52.0305 24.9179 53.8693 23.8018 57.3763C22.6857 60.8833 21.5293 64.5562 20.7719 67.8165C20.0459 70.8033 19.6696 73.4357 19.3021 74.8753C21.6698 74.6776 23.5756 74.1392 25.607 73.807C30.3156 73.0888 32.1408 72.8823 34.3784 72.4245C34.5621 71.3796 34.6742 70.7742 34.3691 69.7159ZM68.026 60.5119C68.5112 66.3237 67.4625 70.6379 66.8619 72.5304C67.1982 72.6649 67.7005 72.8397 68.001 73.194C68.9071 74.3104 66.5978 75.8579 65.7413 75.9836C65.3153 76.0734 64.0013 75.9121 63.6694 75.8315C61.2839 77.1144 58.8176 78.0789 56.9341 78.2361C54.8354 78.4113 52.4943 76.9812 52.2877 74.5058C52.0945 72.1918 56.107 65.0834 60.2506 64.7374C62.0264 64.5892 63.9371 66.7056 65.0406 68.8893C65.3992 67.3421 65.6678 64.7187 65.3624 61.0594C65.1782 58.8531 62.5184 55.5529 60.2044 55.7461C57.6214 55.9617 58.2763 57.3159 56.9848 57.4238C55.9624 57.5091 55.4779 56.2491 55.4599 56.0338C55.3476 54.6885 57.9797 53.1141 59.917 52.9523C63.3072 52.6693 67.6801 56.3683 68.026 60.5119ZM63.3909 72.4951C63.1483 69.5892 61.8385 67.531 60.1703 67.6703C57.964 67.8545 54.857 72.8282 55.1398 74.2677C55.3238 75.1735 56.7813 75.7563 57.0504 75.7338C58.8262 75.5855 60.9786 74.7556 63.2655 73.5893C63.2296 73.1588 63.4268 72.9256 63.3909 72.4951ZM94.7327 66.4105C94.881 68.1863 93.8094 69.6305 92.2042 71.1734C90.1506 73.1872 87.1911 74.7348 84.7157 74.9414C84.1776 74.9864 83.4151 74.2914 83.0832 73.5605C82.5538 72.4125 83.1679 70.6814 83.8002 70.4661C84.2755 70.318 84.4461 71.0624 84.6344 71.3718C85.0157 72.0444 84.7243 72.4481 85.37 72.3942C85.4777 72.3852 88.4328 71.434 89.8362 70.0705C90.8899 69.0614 92.0333 67.828 91.9614 66.967C91.8356 65.4602 88.4857 65.5773 87.0821 65.6403C84.7592 65.7259 83.9699 66.0085 82.6784 66.1163C81.6022 66.2062 80.4855 65.8117 80.3822 64.574C80.2968 63.5516 82.8346 60.8471 83.8701 58.3222C84.5022 56.8063 85.2823 55.7658 85.17 54.4205C85.1251 53.8824 84.7708 53.5326 84.2282 53.5237C83.5241 53.5283 82.0939 55.8694 81.2959 57.3449C80.3096 59.1613 79.1036 61.5921 78.624 62.9868C77.9875 65.0991 77.5395 67.5207 77.1809 69.0679C76.7283 70.7855 75.5896 73.3732 74.455 73.4138C73.751 73.4184 73.0603 72.9341 72.8943 72.2436C72.5802 71.0777 72.8043 70.5171 72.9835 69.4184C73.3375 67.1671 73.4624 62.8216 73.4844 59.8395C73.511 58.2116 73.0757 56.243 72.9634 54.8977C72.8735 53.1712 73.0618 52.8303 73.9586 52.5387C75.2232 52.108 75.5868 54.5161 75.7259 55.5341C76.2915 59.0632 76.516 61.1036 76.5162 62.4041C76.5566 62.2382 77.87 59.1482 79.3585 56.2062C80.9858 52.9816 83.0797 50.8019 84.3174 50.6985C84.9094 50.6491 87.3131 50.8819 87.5647 53.8955C87.6275 54.6488 87.6502 56.2184 86.3278 59.2008C85.8212 60.2726 85.0949 61.9589 84.2745 63.1653C85.4 63.0172 86.4808 62.9811 87.8351 62.9764C90.8711 62.9939 94.4901 63.5046 94.7327 66.4105ZM113.22 56.7389C113.706 62.5507 112.657 66.8649 112.056 68.7574C112.393 68.8919 112.895 69.0667 113.195 69.4209C114.101 70.5374 111.792 72.0849 110.936 72.2106C110.51 72.3004 109.196 72.1391 108.864 72.0584C106.478 73.3414 104.012 74.3059 102.128 74.4631C100.03 74.6383 97.6887 73.2081 97.482 70.7327C97.2889 68.4188 101.301 61.3103 105.445 60.9644C107.221 60.8162 109.131 62.9325 110.235 65.1163C110.594 63.5691 110.862 60.9457 110.557 57.2864C110.372 55.0801 107.713 51.7799 105.399 51.9731C102.816 52.1887 103.471 53.5429 102.179 53.6508C101.157 53.7361 100.672 52.4761 100.654 52.2608C100.542 50.9155 103.174 49.341 105.111 49.1793C108.502 48.8963 112.874 52.5953 113.22 56.7389ZM108.585 68.7221C108.343 65.8162 107.033 63.758 105.365 63.8973C103.158 64.0815 100.051 69.0552 100.334 70.4946C100.518 71.4005 101.976 71.9832 102.245 71.9608C104.021 71.8125 106.173 70.9826 108.46 69.8163C108.424 69.3858 108.621 69.1526 108.585 68.7221ZM148.614 36.2272C148.695 37.1958 147.695 37.5503 143.973 39.0531C141.242 40.0939 137.417 41.0093 134.35 41.2654C131.82 41.4765 126.457 41.4908 126.259 39.123C126.21 38.5311 126.788 37.67 127.865 37.5801C128.241 37.5487 129.937 39.0328 134.726 38.633C137.901 38.3679 140.04 38.0268 143.206 37.0038C145.578 36.2097 146.86 35.344 147.56 35.2856C147.937 35.2542 148.565 35.6353 148.614 36.2272ZM138.554 55.2742C138.612 56.624 138.106 58.3461 137.94 60.2565C137.765 62.0593 137.676 63.584 137.622 64.889C137.524 66.3061 137.905 67.629 137.905 68.2792C137.811 69.0999 137.282 69.9027 136.143 69.8894C135 69.8223 134.461 68.5667 134.484 67.5353C134.573 66.6608 134.555 65.1451 134.694 62.9118C134.868 61.109 135.151 59.2973 135.307 58.5797C133.828 60.3289 132.299 62.1364 130.313 64.3071C126.851 68.2809 122.937 72.0215 120.219 71.9233C119.08 71.91 118.138 71.0132 118.039 69.8293C117.905 68.215 118.245 65.8023 118.774 61.7482C119.352 57.6359 120.378 53.7029 121.185 53.6355C121.992 53.5681 122.921 53.6532 122.939 54.5187C123.002 55.9223 122.051 57.5189 121.621 60.8061C121.263 63.0035 120.757 67.3266 120.788 67.7033C120.847 68.4029 121.165 68.9723 121.649 68.9319C123.214 68.8554 126.931 64.6978 128.77 62.7019C130.864 60.5222 132.666 58.0958 134.038 56.3556C135.603 54.3284 136.432 53.2296 137.074 53.1219C138.195 52.9199 138.513 54.1396 138.554 55.2742ZM170.593 45.8801C170.638 47.0685 168.1 47.8223 164.064 49.4597C161.549 50.4825 157.926 51.8688 153.787 52.2685C151.477 52.5155 149.903 52.4843 147.831 52.3322C146.028 52.1575 144.136 52.2072 144.019 50.808C143.961 50.1085 144.624 49.6196 145.319 49.5073C146.445 49.3592 147.23 49.673 148.593 49.7759C150.939 49.9594 153.203 49.8246 153.903 49.7662C154.871 49.6853 158.961 48.6936 163.024 47.3791C165.347 46.6432 168.409 45.0329 169.427 44.8937C169.961 44.795 170.548 45.342 170.593 45.8801ZM153.123 54.7081C152.922 55.5378 152.348 57.7532 152.092 59.2376C151.743 61.5427 151.721 63.2243 151.86 64.2423C152.094 66.3903 152.73 66.879 152.766 67.3095C152.825 68.0091 152.251 68.924 151.412 69.2649C149.941 69.8212 149.04 68.1083 148.874 66.1172C148.815 65.4177 148.694 61.3637 149.402 58.1617C149.948 55.6234 150.648 53.6143 151.509 53.5424C152.316 53.475 153.28 53.9906 153.123 54.7081ZM186.154 48.5909C186.298 50.313 184.935 52.1608 182.585 53.8742C181.105 54.9731 178.487 56.0587 177.357 56.1531C175.527 56.3058 174.751 56.0996 173.859 55.7948C173.253 56.9833 172.415 59.275 172.577 61.2122C172.833 64.2796 176.111 65.2522 178.318 65.068C181.277 64.8209 182.874 63.1704 183.905 63.1927C184.448 63.2016 184.802 63.5513 184.954 64.0804C185.372 65.8338 179.87 67.4311 177.878 67.5973C172.766 68.0241 170.057 64.7822 169.734 60.9077C169.639 59.7776 170.105 56.2707 171.419 53.831C172.589 51.62 174.436 49.0815 176.405 47.3457C178.068 45.8521 179.839 44.9998 181.507 44.8606C183.499 44.6943 185.925 45.8465 186.154 48.5909ZM183.661 48.5823C183.696 47.7124 182.768 46.977 181.911 47.1027C181.001 47.2329 178.934 48.4351 177.481 49.8569C176.329 50.9826 175.943 51.5567 175.042 53.095C175.616 53.4806 176.217 53.5388 176.486 53.5163C177.885 53.3995 179.728 52.758 180.809 52.0717C182.769 50.8785 183.616 49.3447 183.661 48.5823ZM224.201 42.2718C224.304 43.5094 223.457 45.0433 221.654 46.8194C220.502 47.9451 218.488 49.793 218.583 50.2729C218.677 50.7527 220.3 51.3758 221.144 51.7389C223.337 52.6938 224.664 54.3169 224.79 55.8237C224.911 57.2766 223.427 59.6222 221.683 61.4477C219.428 63.6409 216.558 64.9642 214.41 65.1978C213.818 65.2472 213.1 65.0903 212.773 64.4132C212.392 63.7406 212.755 62.8975 213.477 62.4579C213.943 62.2022 214.226 62.3412 214.822 62.3456C216.392 62.3229 218.643 60.7261 219.799 59.6542C221.261 58.34 222.171 56.9093 222.037 55.9452C221.933 55.3577 220.79 54.6404 219.368 53.8379C217.543 52.744 215.664 52.3048 215.479 50.0984C215.367 48.7531 217.56 47.107 219.223 45.6134C220.385 44.5953 221.349 43.8103 221.268 42.8417C221.214 42.196 220.335 42.0526 219.689 42.1065C217.913 42.2548 216.81 42.672 215.209 43.6184C213.972 44.372 213.541 45.0582 212.371 45.9687C211.86 46.3365 211.748 46.9419 211.044 46.9465C210.228 46.9063 209.604 46.579 209.51 45.449C209.447 44.6956 212.698 42.0941 214.774 40.9996C216.747 39.9679 218.119 39.5282 220.487 39.3305C223.339 39.0924 224.124 41.3569 224.201 42.2718ZM246.578 47.2313C246.888 50.9444 244.745 55.1332 243.045 56.8465C241.395 58.5015 239.023 61.2463 237.602 61.0941C236.889 60.9911 236.593 60.6906 236.507 59.6682C236.489 59.4529 239.104 57.6633 241.161 55.053C242.874 52.8509 244.044 49.9896 243.815 47.2452C243.707 45.9537 243.577 44.3931 242.55 44.4246C241.631 44.4472 239.985 46.8063 237.959 50.4435C235.547 54.6547 234.139 58.5654 232.75 62.041C231.71 67.7634 231.361 71.3689 231.317 77.3333C231.286 78.9073 231.245 79.0732 231.326 80.0419C231.412 81.0643 230.528 82.1676 229.443 82.1498C228.358 82.1321 227.622 81.1097 227.64 80.0245C227.64 78.0737 227.998 71.3246 228.517 65.8624C228.795 62.6964 229.238 60.8711 229.457 57.6557C229.762 52.8618 230.196 47.6777 231.025 42.6774C231.818 37.8969 232.956 30.7574 234.57 30.6227C234.947 30.5912 235.736 30.9588 235.786 31.5508C235.907 33.0037 235.324 34.4612 234.701 37.3852C234.204 39.8652 233.653 43.6501 233.277 46.2826C232.761 50.498 232.296 55.3055 232.211 56.884C233.623 54.3276 234.995 51.287 236.497 48.5064C238.702 44.4207 240.98 41.1961 242.541 41.0658C245.662 40.8052 246.353 44.5406 246.578 47.2313ZM270.255 47.368C270.475 50.0048 269.238 53.3593 266.529 55.9697C264.238 58.3827 260.404 60.4909 257.714 60.7156C254.054 61.0211 251.471 57.3352 251.147 53.4607C250.972 51.362 251.223 49.8238 251.582 48.2766C252.303 45.236 253.312 41.738 255.464 41.5583C256.487 41.473 256.617 42.3833 257.877 42.549C259.249 41.4591 260.724 40.3064 262.769 40.1356C267.074 39.7762 270.066 45.1078 270.255 47.368ZM267.497 48.0859C267.205 44.588 264.608 42.6915 262.778 42.8443C261.433 42.9566 259.994 43.8895 259.236 44.5489C259.38 44.9704 259.339 45.7866 259.048 46.1902C258.676 46.9257 257.837 47.2667 256.976 47.3385C256.277 47.3969 255.635 46.8544 255.209 46.2939C254.142 47.7919 253.824 51.7741 253.964 53.4423C254.17 55.9177 255.821 58.1642 258.027 57.98C258.942 57.9036 262.274 56.921 264.762 54.2748C266.3 52.575 267.735 50.938 267.497 48.0859ZM304.867 14.1873C305.087 14.8734 303.756 15.7974 302.841 17.1743C301.536 19.0714 300.877 21.5648 299.689 22.9104C297.51 25.3682 293.649 25.8531 290.842 26.6293C287.932 27.4683 285.613 28.2579 283.703 29.3928C281.69 30.5904 278.713 34.5238 277.408 37.7214C276.467 40.0759 275.678 44.9102 276.029 49.1076C276.172 50.8296 277.671 57.0987 280.469 56.8651C281.761 56.7572 284.111 55.0438 286.088 52.1152C287.675 49.7068 288.688 46.9128 288.49 44.5451C288.207 41.1548 287.256 39.5002 286.18 39.5901C284.619 39.7204 283.355 40.1511 282.386 40.8822C280.799 41.9901 280.028 43.7884 279.275 43.8513C278.736 43.8963 278.18 43.7259 278.135 43.1878C278.1 42.7573 278.485 40.8828 280.835 39.1693C282.112 38.2498 284.032 37.2226 286.507 37.0159C288.229 36.8722 290.902 39.0333 291.275 43.4998C291.585 47.2128 289.864 51.2581 287.725 54.2002C285.151 57.7747 281.869 59.9995 280.416 60.1208C276.003 60.4892 273.464 52.7897 273.114 48.5923C272.88 45.7941 273.983 40.8251 275 37.4347C276.403 32.82 280.429 28.474 282.084 27.523C284.622 26.119 287.559 24.9526 290.164 24.3558C291.707 24.0102 294.77 23.7004 297.173 21.9825C298.146 21.3052 299.339 18.713 299.895 17.5828C301.244 14.9233 302.719 13.1203 303.796 13.0305C303.957 13.017 304.697 13.4429 304.867 14.1873ZM318.642 37.5302C318.781 38.5482 318.405 39.8801 318.168 42.23C317.948 44.1449 317.738 46.1674 317.819 47.1361C318.021 49.5576 318.882 49.4858 318.886 50.8401C318.873 51.9791 317.958 52.7057 316.828 52.8001C315.806 52.8854 315.59 50.9527 315.393 48.5849C315.209 46.3786 315.065 44.0063 315.221 42.6385C313.625 44.9393 312.374 46.8319 310.182 49.1283C307.151 52.4159 303.77 56.0578 301.295 56.2644C299.519 56.4127 298.375 54.3948 298.312 53.6415C298.155 51.758 298.379 49.2467 298.795 46.4483C299.387 42.4974 299.776 36.7752 301.332 36.5911C302.135 36.4699 302.96 37.268 302.974 38.0797C302.983 38.8376 301.925 42.3939 301.611 45.1295C301.293 47.8112 301.016 50.9773 301.218 52.0984C301.321 52.6858 301.752 53.3001 302.236 53.2597C303.308 53.116 306.343 49.8823 308.63 47.4155C310.764 45.0698 312.611 42.5313 313.616 40.9302C316.162 37.0328 315.678 36.423 317.077 36.3062C317.4 36.2793 318.526 36.7814 318.642 37.5302ZM353.964 51.1629C353.987 52.0822 353.839 52.9073 352.548 53.0152C351.794 53.0781 350.821 50.5041 349.937 47.0557C349.6 45.6207 349.075 43.2261 348.761 40.7597C348.581 39.2575 348.411 38.5131 348.437 36.8852C347.092 38.298 345.779 40.0875 344.097 42.0161C341.43 45.1107 339.345 48.6986 335.686 49.0041C334.017 49.1434 332.613 45.9551 332.519 43.5246C332.442 41.3093 332.612 40.1029 332.141 39.0043C330.967 41.1615 330.545 41.9553 329.595 43.5519C326.806 48.4449 324.703 51.8175 324.161 51.8086C323.291 51.7729 322.685 51.0106 322.779 50.1899C322.882 49.4769 324.048 47.8623 324.967 46.5393C326.469 44.4089 327.545 42.3683 329.164 39.6864C330.975 36.7174 332.701 32.0757 333.885 31.9769C335.661 31.8286 335.594 33.6224 335.724 35.183C335.814 36.2593 335.052 40.116 335.344 43.6138C335.425 44.5825 335.694 45.8605 336.725 45.8828C337.757 45.905 341.173 42.0434 343.344 39.478C345.957 36.3878 349.118 31.4096 349.818 31.3512C350.141 31.3242 351.208 31.777 351.298 32.203C351.585 33.6963 351.46 38.692 351.676 40.6247C351.923 42.284 351.999 43.1988 352.349 44.7952C353.004 47.4499 353.942 50.2436 353.964 51.1629ZM377.039 38.4531C377.26 41.0899 376.022 44.4445 373.314 47.0548C371.023 49.4678 367.189 51.5761 364.498 51.8007C360.839 52.1062 358.256 48.4204 357.932 44.5458C357.757 42.4472 358.008 40.9089 358.366 39.3618C359.088 36.3212 360.096 32.8232 362.249 32.6435C363.271 32.5581 363.401 33.4684 364.662 33.6342C366.034 32.5442 367.509 31.3915 369.554 31.2208C373.859 30.8614 376.851 36.193 377.039 38.4531ZM374.282 39.171C373.99 35.6732 371.393 33.7767 369.563 33.9294C368.218 34.0417 366.778 34.9747 366.021 35.634C366.164 36.0555 366.124 36.8717 365.833 37.2754C365.461 38.0109 364.622 38.3518 363.761 38.4237C363.061 38.4821 362.42 37.9396 361.994 37.3791C360.927 38.8771 360.609 42.8593 360.748 44.5275C360.955 47.0029 362.606 49.2493 364.812 49.0651C365.727 48.9888 369.059 48.0062 371.547 45.36C373.085 43.6601 374.52 42.0231 374.282 39.171ZM37.1233 143.599C37.3164 145.263 36.6305 146.783 36.0298 148.675C35.1827 151.51 33.4658 155.609 32.9276 155.654C31.8514 155.744 31.2773 155.358 31.2054 154.497C31.1785 154.174 32.6309 150.802 33.2943 148.362C33.7514 146.698 34.3656 144.967 34.2847 143.998C34.2218 143.245 33.4862 142.223 32.6386 141.806C32.1992 142.384 31.9391 142.514 31.401 142.559C30.5355 142.577 29.9657 140.945 29.9657 140.945C29.5755 140.815 28.9388 140.977 28.5666 141.062C26.432 141.457 23.755 142.493 22.9792 142.937C22.8537 143.381 23.2574 143.673 23.0781 144.121C22.8584 144.736 22.6118 145.027 21.6432 145.108C20.4593 145.207 19.6295 144.355 19.1316 143.584C18.1631 144.315 16.2753 145.068 15.3649 145.199C14.2932 145.342 13.6519 145.45 12.8985 145.513C12.8986 146.163 12.9794 146.482 12.8181 147.145C12.7554 147.692 12.4056 148.047 11.2756 148.141C9.82262 148.262 9.20363 147.339 9.1586 146.15C9.07764 144.531 9.73599 138.787 10.4753 134.661C11.4925 129.32 13.003 124.046 14.3483 123.933C14.725 123.902 15.613 124.803 15.649 125.234C15.6759 125.557 13.6722 131.414 12.9239 135.432C12.4445 138.127 11.9698 142.177 11.9967 142.499C11.9967 142.499 14.3286 142.522 15.7636 142.185C17.1448 141.853 18.1941 141.44 19.1313 140.983C19.2835 139.561 19.1893 139.081 19.534 135.422C19.7399 132.695 20.0532 128.659 19.9899 125.305C19.9898 124.655 19.7656 124.565 19.8911 124.121C20.0614 123.565 20.5143 123.148 20.9941 123.054C22.4291 122.717 22.7611 124.098 22.7972 125.179C22.8242 126.152 22.4527 130.789 22.377 134.426C22.3505 136.704 22.2296 138.502 22.3241 140.283C23.7636 140 25.7097 139.296 27.9474 138.838C29.1178 138.577 30.1267 138.331 30.9339 138.263C30.7632 136.218 30.6732 133.842 30.6281 132.003C30.5558 128.541 30.6675 125.985 30.7882 123.536C30.8374 122.178 30.5232 120.361 31.8192 120.307C32.7385 120.285 33.5458 120.868 33.6715 121.724C33.9049 123.222 33.4032 126.949 33.4084 131.554C33.4043 134.101 33.6155 137.281 33.6605 138.469C34.6427 139.2 36.8089 140.482 37.1233 143.599ZM59.6229 130.179C59.843 132.815 58.6058 136.17 55.8976 138.78C53.6064 141.193 49.7725 143.302 47.0819 143.526C43.4226 143.832 40.839 140.146 40.5155 136.271C40.3403 134.173 40.5912 132.634 40.9497 131.087C41.6713 128.047 42.6798 124.549 44.8323 124.369C45.8547 124.284 45.9849 125.194 47.2451 125.36C48.6171 124.27 50.0923 123.117 52.1372 122.946C56.4423 122.587 59.4342 127.918 59.6229 130.179ZM56.865 130.896C56.573 127.399 53.9762 125.502 52.1466 125.655C50.8013 125.767 49.3619 126.7 48.6041 127.359C48.7477 127.781 48.7075 128.597 48.416 129.001C48.0439 129.736 47.2054 130.077 46.3444 130.149C45.6448 130.208 45.0035 129.665 44.5774 129.105C43.5103 130.602 43.1925 134.585 43.3318 136.253C43.5384 138.728 45.189 140.975 47.3954 140.791C48.3102 140.714 51.642 139.732 54.1305 137.085C55.6684 135.386 57.1031 133.749 56.865 130.896ZM89.1286 131.888C89.1735 132.426 84.156 135.933 80.5193 137.809C76.5688 139.818 73.1653 141.24 69.7751 141.523C66.0082 141.838 63.3487 139.838 63.1777 136.493C63.0473 133.632 64.616 128.407 68.1133 124.213C70.0861 121.881 72.3639 119.957 75.216 119.719C76.2384 119.634 79.4675 121.315 79.6831 123.898C79.8853 126.319 77.8092 127.414 77.0558 127.477C76.2486 127.544 75.0062 126.293 74.6787 124.966C74.5126 124.275 74.5395 123.948 74.7411 123.118C74.5034 122.867 74.2657 122.616 74.0505 122.634C73.2433 122.701 70.6874 124.54 68.6161 127.64C67.1724 129.819 65.6617 133.793 65.783 135.246C66.0166 138.044 67.3532 139.124 69.8824 138.913C72.9497 138.657 75.9227 137.271 79.5773 135.611C83.1287 134.014 87.3571 130.789 88.1598 130.668C88.5858 130.578 89.0927 131.457 89.1286 131.888ZM104.7 130.696C104.843 132.418 104.256 135.773 100.378 137.993C98.9831 138.814 96.5303 139.94 94.3778 140.12C93.3015 140.209 92.0144 139.721 91.7496 138.497C90.5388 138.273 89.6104 137.537 89.6057 136.183C89.5966 135.425 89.8926 135.075 90.0987 134.299C89.973 133.443 89.9145 132.093 90.0085 130.622C90.1247 128.12 90.3666 126.474 90.7968 124.487C91.0971 122.891 91.6349 120.895 91.9799 119.186C92.0965 118.635 91.8183 117.899 91.9438 117.455C92.2217 116.24 92.8763 115.644 93.3068 115.608C94.0602 115.545 94.9258 116.177 94.9394 116.989C94.9261 118.128 94.321 120.617 93.5681 123.931C93.0976 126.083 92.6541 129.209 92.8023 130.335C92.91 130.976 92.8338 131.362 93.0492 131.994C93.7531 131.339 94.8337 130.003 96.143 128.809C97.5509 127.5 99.1472 126.5 100.6 126.378C103.345 126.149 104.524 128.597 104.7 130.696ZM102.269 130.791C102.175 129.661 101.556 128.737 100.587 128.818C99.6722 128.894 98.4436 129.755 96.9057 131.455C95.9596 132.455 95.1347 133.608 94.377 134.918C94.1394 135.317 94.1305 135.859 93.7584 136.595C93.9244 137.285 94.2922 137.797 94.8259 137.698C96.0008 137.491 97.8348 136.742 99.1217 135.93C100.969 134.692 102.426 132.674 102.269 130.791ZM147.236 115.44C147.322 116.463 145.327 120.477 143.901 123.522C142.61 126.231 141.283 128.509 140.01 130.133C139.144 131.451 138.324 133.308 137.391 135.12C135.674 138.568 134.984 140.685 133.608 144.322C132.945 146.112 132.371 148.327 131.932 150.206C131.484 151.978 131.112 153.363 130.363 153.48C129.668 153.592 128.65 153.081 128.748 152.314C128.882 151.328 129.949 146.579 132.415 140.412C133.67 137.273 136.001 132.093 136.691 130.626C135.736 130.218 134.965 130.066 133.211 127.882C131.82 126.156 130.47 123.614 129.425 121.479C128.443 119.448 127.711 117.829 127.649 117.076C127.586 116.322 128.518 115.811 129.272 115.748C130.24 115.667 131.815 120.9 133.955 123.81C135.242 125.6 135.964 127.111 137.57 128.169C139.336 126.612 140.058 123.572 141.488 120.58C142.775 117.818 144.281 113.791 145.841 113.66C146.541 113.602 147.115 113.987 147.236 115.44ZM169.697 113.999C169.841 115.721 168.658 119.071 167.833 122.825C167.371 125.085 167.062 127.874 167.206 129.596C167.278 130.457 167.502 131.197 168.337 131.453C168.615 131.538 168.763 131.363 168.991 131.506C169.332 131.695 169.364 132.071 169.395 132.448C169.471 133.363 168.373 133.834 167.458 133.91C166.059 134.027 164.718 132.242 164.56 129.058C164.506 127.762 164.443 125.058 164.541 123.641C162.963 124.206 161.465 125.09 159.528 125.902C157.12 126.916 154.47 127.625 153.331 128.262C153.206 129.356 153.677 130.455 153.681 131.159C153.695 131.97 153.058 132.782 152.197 132.854C151.39 132.921 150.901 132.258 150.569 131.527C150.233 130.742 150.686 130.325 150.605 129.356C150.564 128.872 150.25 127.706 150.201 127.114C150.201 127.114 150.201 125.814 150.568 125.024C150.622 123.719 150.872 119.58 151.222 117.275C151.607 114.75 151.907 111.203 153.185 110.934C154.091 110.75 154.813 112.261 154.844 112.638C154.88 113.068 154.047 116.064 153.796 118.252C153.473 120.88 153.429 122.943 153.492 124.997C155.192 124.584 156.671 124.136 158.559 123.382C160.976 122.476 162.165 122.431 164.604 120.493C165.299 119.08 165.98 118.156 166.307 116.233C166.639 114.363 166.665 112.084 168.226 111.954C169.248 111.869 169.58 112.6 169.697 113.999ZM179.048 105.253C178.815 106.356 178.353 107.316 177.227 107.464C175.94 107.625 175.124 106.285 174.962 104.998C174.729 103.5 175.451 101.76 176.962 101.688C178.581 101.607 179.402 103.652 179.048 105.253ZM180.363 113.867C180.395 116.194 179.516 118.652 179.064 121.67C178.598 124.527 177.921 128.106 177.993 128.967C178.083 130.043 179.172 130.114 179.137 130.984C179.07 132.128 178.164 132.962 177.025 132.949C175.94 132.931 175.114 132.133 175.011 130.895C174.786 128.205 175.898 124.644 176.489 120.693C176.794 118.5 177.206 116.948 177.314 114.989C177.372 113.737 177.654 112.576 178.735 112.54C179.546 112.526 180.354 113.109 180.363 113.867ZM211.794 127.066C211.911 128.465 208.256 129.475 205.35 129.717C198.677 130.274 196.426 127.319 195.493 125.88C194.811 126.154 193.923 127.203 193.054 128.468C191.991 130.02 191.233 131.329 189.35 131.486C187.413 131.648 186.793 128.774 186.51 126.684C186.349 125.397 186.492 122.567 186.671 119.518C186.859 116.576 186.804 112.679 188.082 112.41C188.881 112.235 189.804 112.916 189.764 113.732L189.469 119.284C189.357 121.84 189.309 125.15 189.362 125.796C189.47 127.087 189.856 127.814 190.394 127.769C190.717 127.742 191.73 126.248 192.685 125.356C193.385 124.647 193.883 124.118 194.492 123.633C194.317 122.835 194.393 122.45 194.286 121.158C194.178 119.866 195.554 116.88 197.805 113.982C199.222 112.13 200.975 109.762 202.159 109.663C203.02 109.591 204.455 109.905 204.563 111.196C204.693 112.757 203.895 113.582 201.859 115.811C200.272 117.57 197.801 120.431 197.945 122.153C198.358 127.104 202.363 127.691 205.574 127.206C207.717 126.919 209.569 126.385 210.686 126.129C211.377 125.963 211.753 126.582 211.794 127.066ZM229.564 112.252C230.05 118.064 229.001 122.378 228.4 124.271C228.737 124.405 229.239 124.58 229.539 124.934C230.445 126.051 228.136 127.598 227.28 127.724C226.854 127.814 225.54 127.652 225.208 127.572C222.822 128.855 220.356 129.819 218.472 129.976C216.374 130.152 214.033 128.721 213.826 126.246C213.633 123.932 217.645 116.824 221.789 116.478C223.565 116.329 225.475 118.446 226.579 120.63C226.938 119.082 227.206 116.459 226.901 112.8C226.717 110.593 224.057 107.293 221.743 107.486C219.16 107.702 219.815 109.056 218.523 109.164C217.501 109.249 217.016 107.989 216.998 107.774C216.886 106.429 219.518 104.854 221.455 104.693C224.846 104.41 229.218 108.109 229.564 112.252ZM224.929 124.235C224.687 121.329 223.377 119.271 221.709 119.41C219.502 119.595 216.395 124.568 216.678 126.008C216.862 126.914 218.32 127.496 218.589 127.474C220.365 127.326 222.517 126.496 224.804 125.329C224.768 124.899 224.965 124.666 224.929 124.235ZM253.555 125.205C253.581 125.528 253.29 126.582 252.537 126.645C250.707 126.798 249.433 123.869 248.594 121.609C247.401 118.349 247.01 114.968 246.44 111.385C246.117 109.461 246.036 109.143 245.471 108.215C243.866 109.758 241.835 112.691 240.203 115.862C238.804 118.579 237.181 121.858 237.455 123.19C237.626 123.934 238.141 124.27 237.922 124.885C237.711 125.607 237.088 125.93 236.388 125.988C235.204 126.087 234.294 124.266 234.262 123.89C234.244 123.674 236.477 117.311 238.7 113.44C240.978 109.565 244.076 104.484 245.798 104.34C247.627 104.187 248.906 107.169 249.337 112.335C249.589 115.349 250.643 119.542 251.536 121.797C252.559 124.313 253.51 124.667 253.555 125.205ZM270.815 116.828C270.959 118.55 270.372 121.905 266.493 124.125C265.099 124.946 262.646 126.072 260.493 126.252C259.417 126.341 258.13 125.853 257.865 124.629C256.654 124.404 255.726 123.669 255.721 122.315C255.712 121.557 256.008 121.207 256.214 120.431C256.089 119.575 256.03 118.225 256.124 116.754C256.24 114.252 256.482 112.606 256.912 110.619C257.213 109.023 257.75 107.027 258.095 105.318C258.212 104.767 257.934 104.031 258.059 103.587C258.337 102.372 258.992 101.776 259.422 101.74C260.176 101.677 261.041 102.309 261.055 103.121C261.042 104.26 260.437 106.749 259.684 110.063C259.213 112.215 258.77 115.341 258.918 116.467C259.025 117.108 258.949 117.494 259.165 118.126C259.869 117.471 260.949 116.135 262.258 114.941C263.666 113.632 265.263 112.632 266.716 112.51C269.46 112.281 270.64 114.729 270.815 116.828ZM268.384 116.923C268.29 115.793 267.671 114.869 266.703 114.95C265.788 115.026 264.559 115.887 263.021 117.587C262.075 118.587 261.25 119.74 260.492 121.05C260.255 121.449 260.246 121.991 259.874 122.727C260.04 123.417 260.408 123.929 260.941 123.83C262.116 123.623 263.95 122.874 265.237 122.062C267.085 120.824 268.542 118.806 268.384 116.923ZM293.982 103.623C294.125 105.345 292.942 108.695 292.117 112.449C291.656 114.709 291.347 117.498 291.491 119.22C291.562 120.081 291.787 120.821 292.621 121.077C292.899 121.162 293.047 120.987 293.276 121.13C293.617 121.319 293.648 121.695 293.679 122.072C293.756 122.987 292.657 123.458 291.742 123.534C290.343 123.651 289.002 121.867 288.845 118.683C288.791 117.387 288.727 114.682 288.826 113.265C287.247 113.831 285.75 114.714 283.813 115.526C281.405 116.54 278.754 117.249 277.615 117.886C277.49 118.98 277.961 120.079 277.966 120.783C277.979 121.595 277.343 122.406 276.482 122.478C275.674 122.546 275.185 121.882 274.854 121.151C274.517 120.366 274.97 119.949 274.889 118.981C274.849 118.496 274.535 117.33 274.485 116.738C274.485 116.738 274.485 115.438 274.853 114.649C274.906 113.344 275.157 109.204 275.506 106.899C275.891 104.375 276.191 100.827 277.469 100.558C278.375 100.374 279.097 101.885 279.129 102.262C279.165 102.692 278.331 105.688 278.08 107.877C277.758 110.505 277.713 112.567 277.776 114.621C279.476 114.208 280.956 113.76 282.844 113.006C285.261 112.1 286.449 112.055 288.888 110.117C289.583 108.705 290.265 107.781 290.592 105.857C290.923 103.987 290.95 101.709 292.51 101.578C293.533 101.493 293.865 102.224 293.982 103.623ZM314.585 103.095C314.729 104.817 313.366 106.665 311.016 108.378C309.536 109.477 306.918 110.563 305.787 110.657C303.958 110.81 303.182 110.604 302.289 110.299C301.684 111.487 300.846 113.779 301.008 115.716C301.264 118.784 304.542 119.756 306.748 119.572C309.708 119.325 311.304 117.675 312.336 117.697C312.878 117.706 313.233 118.055 313.385 118.585C313.803 120.338 308.3 121.935 306.309 122.101C301.197 122.528 298.488 119.286 298.165 115.412C298.07 114.282 298.536 110.775 299.85 108.335C301.02 106.124 302.867 103.586 304.835 101.85C306.499 100.356 308.27 99.504 309.938 99.3647C311.929 99.1985 314.356 100.351 314.585 103.095ZM312.091 103.087C312.127 102.217 311.199 101.481 310.342 101.607C309.432 101.737 307.365 102.939 305.912 104.361C304.76 105.487 304.374 106.061 303.473 107.599C304.047 107.985 304.648 108.043 304.917 108.02C306.316 107.904 308.159 107.262 309.24 106.576C311.199 105.383 312.047 103.849 312.091 103.087ZM357.771 103.174C358.081 106.888 355.939 111.076 354.239 112.79C352.589 114.445 350.217 117.19 348.796 117.037C348.083 116.934 347.787 116.634 347.701 115.611C347.683 115.396 350.298 113.606 352.355 110.996C354.068 108.794 355.238 105.933 355.009 103.188C354.901 101.897 354.771 100.336 353.744 100.368C352.825 100.39 351.179 102.749 349.153 106.387C346.741 110.598 345.333 114.509 343.944 117.984C342.904 123.707 342.555 127.312 342.511 133.276C342.48 134.85 342.439 135.016 342.52 135.985C342.606 137.007 341.722 138.111 340.637 138.093C339.552 138.075 338.816 137.053 338.834 135.968C338.834 134.017 339.192 127.268 339.711 121.806C339.988 118.64 340.432 116.814 340.651 113.599C340.956 108.805 341.39 103.621 342.219 98.6206C343.012 93.84 344.15 86.7006 345.764 86.5658C346.141 86.5344 346.93 86.902 346.98 87.4939C347.101 88.9469 346.518 90.4044 345.895 93.3284C345.398 95.8083 344.847 99.5933 344.47 102.226C343.955 106.441 343.49 111.249 343.405 112.827C344.817 110.271 346.189 107.23 347.691 104.45C349.896 100.364 352.174 97.1392 353.735 97.0089C356.856 96.7484 357.547 100.484 357.771 103.174ZM378.233 99.8406C378.718 105.652 377.669 109.967 377.069 111.859C377.405 111.994 377.907 112.168 378.208 112.523C379.114 113.639 376.805 115.187 375.948 115.312C375.522 115.402 374.208 115.241 373.876 115.16C371.491 116.443 369.024 117.408 367.141 117.565C365.042 117.74 362.701 116.31 362.494 113.834C362.301 111.521 366.314 104.412 370.457 104.066C372.233 103.918 374.144 106.034 375.247 108.218C375.606 106.671 375.875 104.047 375.569 100.388C375.385 98.1818 372.725 94.8816 370.411 95.0748C367.828 95.2905 368.483 96.6447 367.192 96.7525C366.169 96.8379 365.685 95.5778 365.667 95.3625C365.554 94.0172 368.186 92.4428 370.124 92.2811C373.514 91.998 377.887 95.697 378.233 99.8406ZM373.598 111.824C373.355 108.918 372.045 106.86 370.377 106.999C368.171 107.183 365.064 112.157 365.346 113.596C365.53 114.502 366.988 115.085 367.257 115.063C369.033 114.914 371.185 114.084 373.472 112.918C373.436 112.488 373.634 112.254 373.598 111.824ZM396.354 93.1257C396.458 94.3634 395.61 95.8972 393.808 97.6733C392.655 98.7991 390.642 100.647 390.736 101.127C390.831 101.607 392.454 102.23 393.297 102.593C395.49 103.548 396.818 105.171 396.944 106.678C397.065 108.131 395.581 110.476 393.837 112.302C391.582 114.495 388.712 115.818 386.564 116.052C385.972 116.101 385.254 115.944 384.927 115.267C384.545 114.595 384.909 113.751 385.63 113.312C386.097 113.056 386.379 113.195 386.976 113.2C388.545 113.177 390.796 111.58 391.953 110.508C393.415 109.194 394.325 107.763 394.19 106.799C394.087 106.212 392.943 105.494 391.522 104.692C389.696 103.598 387.817 103.159 387.633 100.952C387.521 99.6071 389.714 97.961 391.377 96.4674C392.538 95.4492 393.502 94.6643 393.422 93.6957C393.368 93.0499 392.489 92.9066 391.843 92.9605C390.067 93.1087 388.964 93.526 387.363 94.4724C386.126 95.226 385.695 95.9122 384.525 96.8227C384.014 97.1905 383.902 97.7959 383.198 97.8005C382.381 97.7603 381.758 97.433 381.664 96.3029C381.601 95.5495 384.852 92.9481 386.928 91.8536C388.901 90.8218 390.273 90.3822 392.641 90.1845C395.493 89.9464 396.278 92.2109 396.354 93.1257ZM419.391 100.144C419.611 102.78 418.374 106.135 415.666 108.745C413.374 111.158 409.54 113.267 406.85 113.491C403.191 113.797 400.607 110.111 400.284 106.236C400.108 104.138 400.359 102.599 400.718 101.052C401.439 98.0116 402.448 94.5136 404.6 94.3339C405.623 94.2485 405.753 95.1589 407.013 95.3246C408.385 94.2347 409.86 93.0819 411.905 92.9112C416.21 92.5518 419.202 97.8834 419.391 100.144ZM416.633 100.861C416.341 97.3636 413.744 95.4671 411.915 95.6198C410.569 95.7322 409.13 96.6651 408.372 97.3245C408.516 97.746 408.475 98.5622 408.184 98.9658C407.812 99.7013 406.973 100.042 406.112 100.114C405.413 100.173 404.771 99.63 404.345 99.0695C403.278 100.567 402.96 104.55 403.1 106.218C403.306 108.693 404.957 110.94 407.163 110.756C408.078 110.679 411.41 109.697 413.898 107.05C415.436 105.351 416.871 103.714 416.633 100.861ZM453.965 108.041C453.988 108.96 453.84 109.785 452.548 109.893C451.795 109.956 450.821 107.382 449.937 103.933C449.601 102.498 449.076 100.104 448.761 97.6374C448.582 96.1351 448.411 95.3907 448.438 93.7628C447.093 95.1756 445.779 96.9651 444.098 98.8937C441.43 101.988 439.345 105.576 435.686 105.882C434.018 106.021 432.614 102.833 432.519 100.402C432.443 98.1869 432.613 96.9806 432.142 95.882C430.967 98.0392 430.546 98.833 429.595 100.43C426.807 105.323 424.704 108.695 424.161 108.686C423.291 108.651 422.686 107.888 422.78 107.068C422.883 106.355 424.049 104.74 424.968 103.417C426.47 101.287 427.546 99.246 429.164 96.564C430.975 93.595 432.701 88.9534 433.885 88.8545C435.661 88.7063 435.594 90.5001 435.724 92.0607C435.814 93.1369 435.052 96.9937 435.344 100.492C435.425 101.46 435.694 102.738 436.726 102.76C437.757 102.783 441.174 98.9211 443.344 96.3556C445.958 93.2654 449.119 88.2872 449.818 88.2288C450.141 88.2019 451.209 88.6546 451.298 89.0806C451.586 90.5739 451.461 95.5696 451.676 97.5024C451.923 99.1616 452 100.076 452.35 101.673C453.005 104.328 453.942 107.121 453.965 108.041ZM465.632 69.0266C465.655 70.5962 465.498 72.6142 465.382 77.7175C465.266 82.8209 465.518 89.7359 465.59 90.5969C465.68 91.6731 466.609 93.7089 466.873 94.2829C467.21 95.0676 466.138 95.8615 465.277 95.9334C463.771 96.0592 462.864 92.3417 462.747 90.2924C462.603 87.2699 462.419 81.8123 462.441 78.8301C462.516 71.942 462.654 67.758 464.322 67.6187C465.291 67.5378 465.627 68.3226 465.632 69.0266ZM466.741 108.274C466.66 109.257 466.113 109.844 465.163 110.14C463.526 110.656 462.884 108.163 462.794 106.436C462.727 104.979 462.789 103.131 464.238 102.956C465.153 102.88 466.538 103.252 466.391 104.077C466.207 105.122 466.144 105.669 466.283 106.687C466.391 107.328 466.795 107.62 466.741 108.274Z" fill="#F5F7F8" fill-opacity="1.000000" fill-rule="evenodd"/>
</svg>
