<svg width="79.993469" height="77.068848" viewBox="0 0 79.9935 77.0688" fill="none" xmlns="http://www.w3.org/2000/svg" xmlns:xlink="http://www.w3.org/1999/xlink">
	<desc>
			Created with Pixso.
	</desc>
	<defs/>
	<path id="Vector" d="M19.4141 4.85693C19.1947 4.85352 18.9769 4.89355 18.7732 4.9751C18.5696 5.05664 18.3842 5.17773 18.2279 5.33203C18.0715 5.48584 17.9474 5.66895 17.8627 5.87158C17.778 6.07373 17.7344 6.29102 17.7344 6.51025L17.7344 10.2603L12.8842 15.1108L12.8842 4.479C12.8828 3.28857 13.3533 2.14648 14.1927 1.30225C15.0399 0.472168 16.1772 0.00488281 17.3633 0L75.5208 0C76.7068 0.00488281 77.8442 0.472168 78.6914 1.30225C79.5136 2.15186 79.9795 3.28369 79.9935 4.46631L79.9935 52.2397C79.9935 53.4312 79.7005 54.8047 78.6914 55.4102C77.849 56.2432 76.7122 56.7109 75.5273 56.7124L40.1562 56.7124C39.9416 55.5645 39.5874 54.4473 39.1016 53.3853L40.6641 51.8296L73.5091 51.8296C73.9443 51.8262 74.3606 51.6514 74.6677 51.3428C74.9749 51.0347 75.1481 50.6177 75.1497 50.1821L75.1497 6.51025C75.1497 6.07178 74.9755 5.65137 74.6654 5.34131C74.3553 5.03076 73.9347 4.85693 73.4961 4.85693L64.5117 4.85693L64.5117 22.064L55.0195 17.3179L45.5729 22.064L45.5729 4.85693L19.4141 4.85693ZM6.08069 50.5859L4.01038 62.3047C3.98169 62.458 3.91455 62.6011 3.81506 62.7212C3.28284 63.3276 2.92114 64.0649 2.76697 64.8569C2.70764 65.0649 2.70667 65.2856 2.76404 65.4946C2.82153 65.7036 2.93506 65.8926 3.09241 66.0415L10.599 73.5679C11.0978 74.0562 11.7336 74.3809 12.4219 74.4985C13.2144 74.7422 14.0579 74.7666 14.8633 74.5703L14.9219 74.5703L16.3346 74.2188C18.5026 73.6914 20.3906 73.2227 22.1484 71.6147L24.4011 69.2642C24.4278 69.2246 24.4583 69.1875 24.4922 69.1538C24.5247 69.1538 24.7461 68.8999 25.0456 68.6196C26.582 67.1094 28.4961 65.2476 27.3307 63.6196L26.4258 62.7148C25.9896 63.1382 25.5273 63.5483 25.0847 63.9517C24.6419 64.3555 24.2969 64.6421 23.9453 64.9937C23.7666 65.1724 23.5242 65.2725 23.2715 65.2725C23.0187 65.2725 22.7764 65.1724 22.5977 64.9937C22.4189 64.8149 22.3185 64.5723 22.3185 64.3198C22.3185 64.0669 22.4189 63.8247 22.5977 63.646C22.9427 63.2944 23.3789 62.9102 23.8216 62.5132C25.3516 61.1719 27.0768 59.6289 26.1589 58.2812L25.2669 57.3892L25.1367 57.2266C24.6224 57.7539 24.056 58.2554 23.5026 58.7437C23.0989 59.1016 22.7214 59.4336 22.3698 59.7852C22.1906 59.9629 21.9484 60.0625 21.696 60.0625C21.4435 60.0625 21.2014 59.9629 21.0222 59.7852C20.9326 59.6973 20.8615 59.5923 20.8129 59.4766C20.7643 59.3608 20.7393 59.2368 20.7393 59.1113C20.7393 58.9858 20.7643 58.8618 20.8129 58.7461C20.8615 58.6304 20.9326 58.5254 21.0222 58.4375C21.3672 58.0859 21.8034 57.7017 22.2461 57.311C23.7761 55.9634 25.5013 54.4204 24.5833 53.0728L23.6914 52.1812C23.6317 52.1177 23.5792 52.0479 23.5352 51.9727L20.931 54.5767C20.7523 54.7554 20.5099 54.856 20.2571 54.856C20.0044 54.856 19.7621 54.7554 19.5834 54.5767C19.4047 54.3979 19.3042 54.1558 19.3042 53.9028C19.3042 53.6504 19.4047 53.4077 19.5834 53.229L24.4987 48.314C25.6771 47.1353 25.944 45.9116 25.638 44.9805C25.5273 44.6421 25.638 44.6353 25.3906 44.3945C25.2672 44.272 25.1295 44.165 24.9805 44.0757C24.9089 44.0757 24.8568 44.0366 24.7852 43.9648C24.7012 43.9233 24.6141 43.8887 24.5247 43.8608C23.7109 43.5874 22.9362 44.0688 21.8685 44.9741L21.8229 45.0132C21.7057 45.1108 21.5886 45.2148 21.4714 45.332L11.2435 55.5601C11.0642 55.7378 10.822 55.8374 10.5697 55.8374C10.3173 55.8374 10.0751 55.7378 9.89587 55.5601C9.73206 55.3989 9.63257 55.1841 9.61572 54.9556C9.599 54.7266 9.66614 54.4995 9.80469 54.3164L6.08069 50.5859ZM12.2396 51.2891L12.5717 50.9634L19.2969 44.2319C18.0212 43.6577 16.9625 42.6909 16.275 41.4727C15.5875 40.2549 15.3071 38.8486 15.475 37.46C15.6428 36.0713 16.25 34.7725 17.2079 33.7534C18.1659 32.7339 19.4244 32.0474 20.8 31.7935C22.1757 31.54 23.5964 31.7324 24.8549 32.3433C26.1133 32.9536 27.1438 33.9507 27.7959 35.188C28.448 36.4258 28.6876 37.8389 28.4797 39.2222C28.272 40.6055 27.6276 41.8862 26.6406 42.8774L26.5755 42.9429C26.6285 42.9873 26.6786 43.0352 26.7253 43.0859C26.9326 43.2822 27.1181 43.5005 27.2786 43.7368L35.625 35.4233C35.0115 34.8037 34.6674 33.9673 34.6674 33.0957C34.6674 32.2241 35.0115 31.3877 35.625 30.7681L29.4075 24.5508C28.791 25.167 27.955 25.5132 27.0833 25.5132C26.2117 25.5132 25.3757 25.167 24.7591 24.5508L7.46094 41.8491C8.07434 42.4683 8.41858 43.3047 8.41858 44.1763C8.41858 45.0483 8.07434 45.8848 7.46094 46.5039L12.2396 51.2891ZM26.9141 49.0757C26.6774 49.4067 26.4116 49.7163 26.1198 50L25.1497 50.9766C25.2252 51.02 25.2952 51.0728 25.3581 51.1328L26.2891 52.0703C26.3397 52.1226 26.3854 52.1792 26.4258 52.2397C26.8803 52.7812 27.1432 53.4575 27.1739 54.1641C27.2045 54.8701 27.001 55.5669 26.595 56.146C26.7248 56.1938 26.8425 56.269 26.9401 56.3672L27.8711 57.2983C27.9222 57.3521 27.968 57.4111 28.0078 57.4741C28.4866 58.0566 28.7484 58.7871 28.7484 59.541C28.7484 60.2949 28.4866 61.0254 28.0078 61.6079C28.05 61.6367 28.0892 61.6694 28.125 61.7056L29.056 62.6367C29.1051 62.6924 29.1508 62.751 29.1927 62.8125C31.3607 65.7749 28.7761 68.2876 26.6992 70.3188L26.1653 70.853L23.8542 73.2812L23.7761 73.353C21.6602 75.3062 19.5573 75.7876 17.1289 76.3804L15.7422 76.7251L15.7031 76.7251C14.5446 77.0703 13.3246 77.1567 12.1289 76.979C11.0571 76.7964 10.068 76.2871 9.29688 75.521L1.23047 67.4155C0.838745 67.0522 0.55127 66.5908 0.397827 66.0791C0.244507 65.5674 0.230713 65.0239 0.358032 64.5054C0.652222 63.3799 1.19751 62.3359 1.95312 61.4517L4.07556 49.2319L4.07556 49.1797C4.07556 49.0298 4.12756 48.8608 4.16016 48.6719L0 44.5181L27.4479 17.0703L43.1836 32.8062L26.9075 49.082L26.9141 49.0757Z" fill="#DDD5C6" fill-opacity="1.000000" fill-rule="nonzero"/>
</svg>
