<svg width="251.000000" height="147.000000" viewBox="0 0 251 147" fill="none" xmlns="http://www.w3.org/2000/svg" xmlns:xlink="http://www.w3.org/1999/xlink">
	<desc>
			Created with Pixso.
	</desc>
	<defs>
		<clipPath id="clip11_241">
			<rect id="name" width="251.000000" height="147.000000" fill="white" fill-opacity="0"/>
		</clipPath>
	</defs>
	<g clip-path="url(#clip11_241)">
		<path id="Vector 27" d="M116.376 4.56934C115.454 -1.88477 112.578 -0.595703 108.309 2.88525C95.2885 13.502 87.5044 28.5654 79.3225 42.9526C68.5823 61.8384 59.6166 81.6128 49.3606 100.749C42.1779 114.151 33.4575 129.545 20.1965 137.891C12.4669 142.756 2.74133 140.488 0.606079 130.711C-2.14062 118.134 4.8623 105.75 13.2822 97.0259C25.5599 84.3052 40.3026 79.6738 56.7181 74.5986C62.049 72.9507 69.2789 71.6113 73.2947 67.5957" stroke="#705A66" stroke-opacity="1.000000" stroke-width="3.000000" stroke-linecap="round"/>
		<path id="Vector 28" d="M97.2289 23.7168C94.9521 24.2861 91.9689 30.0679 91.0238 31.606C84.2542 42.6265 79.1366 54.8564 74.0483 66.7095C63.2557 91.8511 54.7615 117.754 47.7651 144.185" stroke="#705A66" stroke-opacity="1.000000" stroke-width="3.000000" stroke-linecap="round"/>
		<path id="Vector 29" d="M74.0925 112.272C92.8713 101.374 110.718 87.6973 125.95 72.1606C130.166 67.8608 140.487 58.9756 140.487 52.1714C140.487 45.2671 126.261 57.8892 125.772 58.3325C107.083 75.291 89.6879 96.9492 82.5138 121.58C81.8854 123.738 79.6898 133.091 85.1731 129.559C90.6681 126.019 95.4475 119.843 98.4698 114.134C104.386 102.96 90.0189 110.086 86.2811 113.824C84.9646 115.141 82.6527 118.251 84.9958 119.896C88.4294 122.307 94.7676 118.719 97.8051 117.325C104.521 114.244 111.332 111.263 117.883 107.84C119.833 106.822 124.846 102.947 123.778 104.871C122.287 107.555 116.497 115.827 123.734 115.198C127.834 114.841 131.696 111.876 135.124 109.879C138.074 108.162 145.324 105.265 145.806 101.104C146.771 92.7817 129.594 100.028 127.457 102.699C125.84 104.72 125.437 107.716 127.767 109.347C131.242 111.78 136.324 109.64 139.778 108.284C145.099 106.195 150.108 103.321 155.247 100.837C157.545 99.7266 161.505 97.2012 164.067 99.0645C166.743 101.011 162.456 106.845 167.613 105.536C171.285 104.603 175.197 102.785 178.516 101.015C179.511 100.484 184.802 95.9263 186.051 96.4937C186.78 96.8252 185.007 97.917 185.12 98.71C185.44 100.951 189.827 99.7178 191.015 99.3306C202.948 95.439 212.416 82.3892 220.09 73.1802" stroke="#705A66" stroke-opacity="1.000000" stroke-width="3.000000" stroke-linecap="round"/>
		<path id="Vector 30" d="M230.462 56.4263C230.102 54.8057 215.498 73.064 213.93 75.7065C207.43 86.6577 201.964 98.1899 196.954 109.879" stroke="#705A66" stroke-opacity="1.000000" stroke-width="3.000000" stroke-linecap="round"/>
		<path id="Vector 31" d="M200.943 69.1914C215.337 71.1011 229.677 73.3477 244.024 75.5737" stroke="#705A66" stroke-opacity="1.000000" stroke-width="3.000000" stroke-linecap="round"/>
		<path id="Vector 32" d="M153.075 133.016C156.635 127.515 156.77 136.167 156.621 138.556C156.471 140.952 155.381 144.308 155.823 146.667C156.151 148.414 162.4 141.919 162.649 141.614C165.8 137.746 168.502 133.135 172.931 130.534C175.162 129.224 175.103 132.014 175.502 133.459C177.802 141.795 187.843 137.264 192.478 133.725C194.54 132.15 200.907 123.241 202.361 128.052C204.922 136.521 216.588 130.831 220.356 126.633C228.053 118.06 215.326 114.872 214.594 122.645C213.368 135.673 246.178 123.473 251.205 121.847" stroke="#705A66" stroke-opacity="1.000000" stroke-width="3.000000" stroke-linecap="round"/>
	</g>
</svg>
