<svg width="86.000000" height="86.000000" viewBox="0 0 86 86" fill="none" xmlns="http://www.w3.org/2000/svg" xmlns:xlink="http://www.w3.org/1999/xlink">
	<desc>
			Created with Pixso.
	</desc>
	<defs>
		<clipPath id="clip7_299">
			<rect id="package-box-ui-4-svgrepo-com 1" width="86.000000" height="86.000000" fill="white" fill-opacity="0"/>
		</clipPath>
	</defs>
	<rect id="package-box-ui-4-svgrepo-com 1" width="86.000000" height="86.000000" fill="#F5EEE0" fill-opacity="0"/>
	<g clip-path="url(#clip7_299)">
		<path id="path453757" d="M18.8125 64.5366C18.0997 64.5366 17.4161 64.8198 16.9122 65.3237C16.4082 65.8276 16.125 66.5112 16.125 67.2241C16.125 67.937 16.4082 68.6206 16.9122 69.1245C17.4161 69.6284 18.0997 69.9116 18.8125 69.9116L34.9375 69.9116C35.6503 69.9116 36.3339 69.6284 36.8378 69.1245C37.3418 68.6206 37.625 67.937 37.625 67.2241C37.625 66.5112 37.3418 65.8276 36.8378 65.3237C36.3339 64.8198 35.6503 64.5366 34.9375 64.5366L18.8125 64.5366Z" fill="#DDD5C6" fill-opacity="1.000000" fill-rule="evenodd"/>
		<path id="path453703" d="M16.1251 5.41162C15.6254 5.41211 15.1357 5.55176 14.7111 5.81494C14.2864 6.07861 13.9436 6.45508 13.7211 6.90234L5.65857 23.1216C5.48755 23.4756 5.39612 23.8628 5.39087 24.2559C5.38525 24.2764 5.37988 24.2974 5.37476 24.3184L5.37476 77.9741C5.37488 78.6865 5.65796 79.3701 6.16199 79.874C6.66589 80.3784 7.34949 80.6616 8.06226 80.6616L77.9373 80.6616C78.65 80.6616 79.3335 80.3784 79.8375 79.874C80.3414 79.3701 80.6246 78.6865 80.6248 77.9741L80.6248 24.3184L80.6248 24.313C80.6233 23.8994 80.5262 23.4917 80.3413 23.1216L72.2788 6.90186C72.0563 6.45459 71.7135 6.07861 71.2888 5.81494C70.8643 5.55176 70.3746 5.41211 69.8751 5.41162L16.1251 5.41162ZM17.7838 10.7866L34.4705 10.7866L32.712 21.6309L12.3983 21.6309L17.7838 10.7866ZM39.9084 10.7866L51.472 10.7866L53.283 21.6309L38.1553 21.6309L39.9084 10.7866ZM56.9205 10.7866L68.2112 10.7866L73.6019 21.6309L58.7314 21.6309L56.9205 10.7866ZM10.7501 27.0059L32.2501 27.0059L32.2501 53.7866C32.2502 54.3179 32.4081 54.8374 32.7034 55.2793C32.9988 55.7212 33.4183 56.0654 33.9093 56.2686C34.4003 56.4722 34.9406 56.5254 35.4618 56.4219C35.983 56.3184 36.4618 56.0625 36.8378 55.6865L45.6876 46.8369L54.5375 55.6865C54.9133 56.0625 55.3922 56.3184 55.9135 56.4219C56.4347 56.5254 56.9749 56.4722 57.4658 56.2686C57.9568 56.0654 58.3765 55.7212 58.6718 55.2793C58.9672 54.8374 59.1249 54.3179 59.1251 53.7866L59.1251 27.0059L75.2501 27.0059L75.2501 75.2866L10.7501 75.2866L10.7501 27.0059ZM37.6251 27.0059L53.7501 27.0059L53.7501 47.2988L47.5878 41.1367C47.0837 40.6328 46.4003 40.3496 45.6876 40.3496C44.975 40.3496 44.2915 40.6328 43.7875 41.1367L37.6251 47.2988L37.6251 27.0059Z" fill="#DDD5C6" fill-opacity="1.000000" fill-rule="evenodd"/>
	</g>
</svg>
