<svg width="30.000000" height="30.000000" viewBox="0 0 30 30" fill="none" xmlns="http://www.w3.org/2000/svg" xmlns:xlink="http://www.w3.org/1999/xlink">
	<desc>
			Created with Pixso.
	</desc>
	<defs>
		<clipPath id="clip5_187">
			<rect id="Shopping cart" width="30.000000" height="30.000000" fill="white" fill-opacity="0"/>
		</clipPath>
	</defs>
	<rect id="Shopping cart" width="30.000000" height="30.000000" fill="#705A66" fill-opacity="0"/>
	<g clip-path="url(#clip5_187)">
		<path id="Vector" d="M8.75 22.5C7.375 22.5 6.26245 23.625 6.26245 25C6.26245 26.375 7.375 27.5 8.75 27.5C10.125 27.5 11.25 26.375 11.25 25C11.25 23.625 10.125 22.5 8.75 22.5ZM1.25 2.5L1.25 5L3.75 5L8.25 14.4875L6.5625 17.55C6.36255 17.8999 6.25 18.3125 6.25 18.75C6.25 20.125 7.375 21.25 8.75 21.25L23.75 21.25L23.75 18.75L9.27502 18.75C9.09998 18.75 8.96252 18.6125 8.96252 18.4375L9 18.2876L10.125 16.25L19.4375 16.25C20.375 16.25 21.2 15.7375 21.625 14.9624L26.1 6.8501C26.2 6.67505 26.25 6.4624 26.25 6.25C26.25 5.5625 25.6875 5 25 5L6.51245 5L5.33752 2.5L1.25 2.5ZM21.25 22.5C19.875 22.5 18.7625 23.625 18.7625 25C18.7625 26.375 19.875 27.5 21.25 27.5C22.625 27.5 23.75 26.375 23.75 25C23.75 23.625 22.625 22.5 21.25 22.5Z" fill="#705A66" fill-opacity="1.000000" fill-rule="nonzero"/>
	</g>
</svg>
