<svg width="34.000000" height="34.000000" viewBox="0 0 34 34" fill="none" xmlns="http://www.w3.org/2000/svg" xmlns:xlink="http://www.w3.org/1999/xlink">
	<desc>
			Created with Pixso.
	</desc>
	<defs/>
	<path id="Vector" d="M13.5357 33.999C13.4238 33.999 13.3105 33.9775 13.2 33.9355C12.7651 33.7686 12.4733 33.3057 12.4733 32.7842L12.4733 21.7363C12.4733 21.3877 12.6036 21.0576 12.8317 20.8262L17.311 16.29L9.91052 21.2061C9.60315 21.4102 9.22345 21.4248 8.90192 21.2441L0.587646 16.5088C0.210876 16.2949 -0.0186157 15.8467 0.00115967 15.3672C0.0209961 14.8867 0.284546 14.4658 0.676941 14.291L32.5512 0.0849609C32.9096 -0.0800781 33.3218 -0.000976562 33.6207 0.287109C33.9183 0.572266 34.0557 1.02051 33.9792 1.45605L28.4359 33.0244C28.3679 33.4062 28.1454 33.7285 27.8338 33.8906C27.5236 34.0518 27.1623 34.0342 26.8677 33.8398L17.9797 28.0557L14.3857 33.5166C14.1803 33.8252 13.863 33.999 13.5357 33.999ZM17.6921 25.2568C17.872 25.2568 18.0533 25.3086 18.2177 25.416L26.6396 30.8975L31.5114 3.1543L3.68304 15.5586L9.33826 18.7803L25.4737 8.05957C25.9454 7.74219 26.5504 7.89258 26.8677 8.39844C27.1892 8.90332 27.1212 9.60449 26.7119 10.0186L14.5982 22.2832L14.5982 29.1533L16.8436 25.7422C17.0504 25.4268 17.3691 25.2568 17.6921 25.2568Z" fill="#F5F7F8" fill-opacity="1.000000" fill-rule="nonzero"/>
</svg>
