<svg width="24.000000" height="21.001831" viewBox="0 0 24 21.0018" fill="none" xmlns="http://www.w3.org/2000/svg" xmlns:xlink="http://www.w3.org/1999/xlink">
	<desc>
			Created with Pixso.
	</desc>
	<defs/>
	<path id="Vector" d="M9.55463 21.0011C9.47565 21.0011 9.39563 20.9881 9.31763 20.9621C9.01062 20.8591 8.80463 20.5731 8.80463 20.2511L8.80463 13.4263C8.80463 13.2112 8.89661 13.0073 9.05762 12.8643L12.2195 10.0623L6.99567 13.0992C6.77869 13.2253 6.51068 13.2343 6.28369 13.1223L0.414856 10.1973C0.148865 10.0653 -0.0131836 9.78833 0.000854492 9.49231C0.0148315 9.19537 0.200806 8.93536 0.477844 8.82733L22.9773 0.0525513C23.2303 -0.0494385 23.5213 -0.000427246 23.7323 0.177551C23.9423 0.353577 24.0393 0.630554 23.9853 0.899536L20.0724 20.3991C20.0244 20.6351 19.8674 20.8341 19.6474 20.9341C19.4284 21.0341 19.1734 21.0231 18.9654 20.9031L12.6915 17.3301L10.1546 20.7031C10.0096 20.8941 9.78564 21.0011 9.55463 21.0011ZM12.4885 15.6012C12.6155 15.6012 12.7435 15.6332 12.8596 15.6992L18.8044 19.0851L22.2433 1.94849L2.59979 9.61035L6.59167 11.6003L17.9814 4.97845C18.3145 4.78247 18.7414 4.87543 18.9654 5.18744C19.1924 5.49945 19.1444 5.93243 18.8554 6.18842L10.3046 13.7642L10.3046 18.0081L11.8896 15.9012C12.0356 15.7062 12.2606 15.6012 12.4885 15.6012Z" fill="#705A66" fill-opacity="1.000000" fill-rule="nonzero"/>
</svg>
