<svg width="35.421387" height="35.424805" viewBox="0 0 35.4214 35.4248" fill="none" xmlns="http://www.w3.org/2000/svg" xmlns:xlink="http://www.w3.org/1999/xlink">
	<desc>
			Created with Pixso.
	</desc>
	<defs/>
	<path id="&lt;Path&gt;" d="M0.710693 15.2334C0.710693 23.624 4.07831 27.2227 8.80591 28.7236L8.80591 32.9346C8.76996 33.2891 8.8526 33.6455 9.04095 33.9482C9.22937 34.251 9.51288 34.4824 9.84735 34.6074C10.1818 34.7334 10.5485 34.7441 10.8902 34.6406C11.2319 34.5361 11.5294 34.3223 11.7364 34.0322L15.525 29.7236L17.7107 29.7236C26.5345 29.7236 34.7107 28.3203 34.7107 15.2012C34.7107 2.08203 26.5345 0.710938 17.7107 0.710938C8.8869 0.710938 0.710693 2.13086 0.710693 15.2334Z" stroke="#F5F7F8" stroke-opacity="1.000000" stroke-width="1.421433" stroke-linejoin="round"/>
	<path id="&lt;Path&gt;" d="M20.9493 24.915C21.8939 24.9248 22.8127 24.6094 23.5504 24.0205C24.288 23.4326 24.799 22.6084 24.9969 21.6875L24.9969 20.0742C24.9969 20.0742 23.0054 19.1064 21.7588 18.4609C20.5121 17.8154 18.5207 20.0742 18.5207 20.0742C17.0055 19.582 15.6216 18.7549 14.4731 17.6543C13.3684 16.5088 12.5381 15.1299 12.0445 13.6201C12.0445 13.6201 14.3112 11.6348 13.6636 10.3926C13.0159 9.15039 12.0445 7.16504 12.0445 7.16504L10.4255 7.16504C9.50177 7.3623 8.67487 7.87207 8.08472 8.60742C7.49463 9.3418 7.17761 10.2578 7.18738 11.1992C7.18738 13.3457 9.93976 17.9766 12.0445 20.0742C14.1492 22.1719 18.7959 24.915 20.9493 24.915ZM17.7112 12.0059C18.3553 12.0059 18.973 12.2617 19.4284 12.7148C19.8839 13.1689 20.1397 13.7852 20.1397 14.4268M17.7112 5.55176C20.0729 5.55176 22.3378 6.48633 24.0078 8.15137C25.6777 9.81543 26.6159 12.0732 26.6159 14.4268M17.7112 8.7793C19.2141 8.7793 20.6554 9.37402 21.7181 10.4336C22.7808 11.4922 23.3778 12.9287 23.3778 14.4268" stroke="#F5F7F8" stroke-opacity="1.000000" stroke-width="1.421433" stroke-linejoin="round"/>
</svg>
